# xmcd
#
# Track frame offsets:
#	150
#	16645
#	32598
#	46767
#	63298
#	78707
#	95532
#	110539
#	126370
#	140164
#	155765
#	171207
#	186748
#	202346
#	218001
#	232394
#	246735
#	262137
#	278764
#	295204
#
# Disc length: 4151 seconds
#
# Revision: 1
# Processed by: cddbd v1.5.2PL0 Copyright (c) Steve Scherf et al.
# Submitted via: audiograbber 1.83.01
#
DISCID=43103514
DTITLE=Various Artist - Hitparaden-Schlager-CD01
DYEAR=2015
DGENRE=Discofox
TTITLE0=20 Jahre Medley-Andrea Berg
TTITLE1=Wenn dein Herz nach Hause kommt - Nik. P
TTITLE2=Unter dem Regenbogen - Andreas Martin
TTITLE3=Mein Leben ist Rock'n Roll - Mathias Reim
TTITLE4=Wenn die Sehnsucht nach mir in  Dir brennt - Fantasy
TTITLE5=Ich heb das Glas - Wolfgang Petry
TTITLE6=Der Zaubertrank ist leer - Wolkenfrei
TTITLE7=Vagabund - Tanja Lasch
TTITLE8=Geschworen - Michael Morgen
TTITLE9=Grenzenlos - De Lancaster
TTITLE10=Fliegst Du mit mir - Frank Neuenfels
TTITLE11=Ruf mich an - Ben Luca
TTITLE12=Kinder(Radio Edit) - DJ Happy Vibes feat.Jazzmin
TTITLE13=Mein Prinz - Franziska
TTITLE14=Das muss ein Wunder sein - Flamingoboys
TTITLE15=7 Leben - Mitch Keller
TTITLE16=Wahre Liebe macht nicht blind - Leonard
TTITLE17=An einem Tag - Rockstroh
TTITLE18=Lass uns lieben(Discofoxmix) - Die Cappuccinos
TTITLE19=Dein ist mein ganzes Herz - Hörgerät
EXTD=
EXTT0=
EXTT1=
EXTT2=
EXTT3=
EXTT4=
EXTT5=
EXTT6=
EXTT7=
EXTT8=
EXTT9=
EXTT10=
EXTT11=
EXTT12=
EXTT13=
EXTT14=
EXTT15=
EXTT16=
EXTT17=
EXTT18=
EXTT19=
PLAYORDER=
